<?xml version="1.0" standalone="no"?>
<!DOCTYPE svg PUBLIC "-//W3C//DTD SVG 20010904//EN"
 "http://www.w3.org/TR/2001/REC-SVG-20010904/DTD/svg10.dtd">
<svg version="1.0" xmlns="http://www.w3.org/2000/svg"
 width="256.000000pt" height="256.000000pt" viewBox="0 0 256.000000 256.000000"
 preserveAspectRatio="xMidYMid meet">

<g transform="translate(0.000000,256.000000) scale(0.100000,-0.100000)"
fill="#000000" stroke="none">
<path d="M570 1585 l0 -505 353 0 353 0 30 -31 c70 -75 216 -115 388 -107 169
9 281 63 340 168 27 48 31 64 31 130 -1 88 -23 140 -82 189 -55 45 -125 69
-333 111 -194 39 -254 61 -290 107 -19 24 -21 38 -18 95 3 55 9 75 34 110 54
77 135 110 273 109 96 0 171 -21 240 -66 40 -27 101 -106 101 -132 0 -25 28
-13 38 16 28 79 -41 148 -184 186 -74 20 -252 23 -324 5 -192 -45 -290 -173
-246 -322 32 -110 128 -162 371 -198 258 -39 349 -101 348 -239 0 -68 -19
-115 -64 -159 -70 -69 -165 -98 -297 -89 -73 4 -96 10 -161 43 -95 49 -141
104 -141 169 0 25 6 47 15 55 20 16 10 30 -21 30 -32 0 -74 -42 -74 -74 0 -22
-6 -25 -87 -40 -133 -23 -226 -34 -358 -42 -106 -6 -123 -5 -138 10 -16 16
-17 59 -17 497 l0 479 -40 0 -40 0 0 -505z"/>
</g>
</svg>
